<?xml version="1.0" encoding="UTF-8" standalone="no"?>
<svg
   width="192.38133"
   height="179.8577"
   viewBox="0 0 192.38133 179.8577"
   fill="none"
   version="1.1"
   id="svg14"
   sodipodi:docname="sciprofiles-logo.svg"
   inkscape:version="1.3 (0e150ed6c4, 2023-07-21)"
   xmlns:inkscape="http://www.inkscape.org/namespaces/inkscape"
   xmlns:sodipodi="http://sodipodi.sourceforge.net/DTD/sodipodi-0.dtd"
   xmlns="http://www.w3.org/2000/svg"
   xmlns:svg="http://www.w3.org/2000/svg">
  <defs
     id="defs14" />
  <sodipodi:namedview
     id="namedview14"
     pagecolor="#ffffff"
     bordercolor="#666666"
     borderopacity="1.0"
     inkscape:showpageshadow="2"
     inkscape:pageopacity="0.0"
     inkscape:pagecheckerboard="0"
     inkscape:deskcolor="#d1d1d1"
     inkscape:zoom="3.6926148"
     inkscape:cx="89.773784"
     inkscape:cy="92.211081"
     inkscape:window-width="1920"
     inkscape:window-height="1046"
     inkscape:window-x="-11"
     inkscape:window-y="-11"
     inkscape:window-maximized="1"
     inkscape:current-layer="svg14" />
  <path
     d="m 31.990767,99.175096 c 0.2507,-15.5397 2.9355,-38.5282 7.6017,-57.8045 L 0,61.215696 40.662667,168.5807 l 87.153303,11.277 7.908,-8.494 c -24.42,-0.893 -67.883503,-17.417 -90.468403,-32.48 -9.8706,-6.593 -13.4177,-28.89 -13.2648,-39.708604 z"
     fill="#337a87"
     id="path1" />
  <path
     d="m 190.11597,49.785896 c -3.021,-17.6557 -26.909,-35.0361 -45.745,-39.9592 -32.217,-8.43948 -74.671303,-16.30412 -90.516903,-1.62672 -5.7976,5.36952 -10.6167,18.15102 -14.2432,33.14642 l 45.0109,-22.5542 93.342203,21.0192 7.339,78.279304 -49.579,53.273 c 2.675,0.133 5.357,-0.002 8.005,-0.404 15.332,-2.538 36.565,-18.958 42.124,-36.149 5.376,-16.616 9.156,-56.410004 4.263,-85.024804 z"
     fill="#9fd6e0"
     id="path2" />
  <path
     d="m 177.96397,39.811196 -93.342303,-20.9948 -45.0109,22.5543 c -4.6662,19.3007 -7.3387,42.2647 -7.6017,57.8044 -0.1712,10.818604 3.3758,33.115604 13.2464,39.708604 22.5605,15.063 66.048503,31.587 90.468503,32.48 l 49.579,-53.273 z"
     fill="#35c5df"
     id="path3" />
  <path
     d="m 50.949267,118.2377 7.1369,-8.409 c 4.8925,4.611 11.375,7.712 17.6496,7.712 7.5773,0 11.7114,-3.413 11.7114,-8.641 0,-5.504 -4.3543,-7.272 -10.5127,-9.883204 l -9.2652,-4.0179 c -6.7271,-2.7887 -13.7417,-8.1215 -13.7417,-18.0532 0,-10.8551 9.5892,-19.2335 22.909,-19.2335 7.8729,0.0149 15.4219,3.1356 21.0071,8.6841 l -6.2868,7.7729 c -4.336,-3.6693 -8.9288,-5.8098 -14.7203,-5.8098 -6.3786,0 -10.5249,2.9661 -10.5249,7.8708 0,5.2716 5.131,7.2164 10.7818,9.5281 l 9.1367,3.8283 c 8.1032,3.3636 13.7298,8.5007 13.7298,18.346404 0,11.039 -9.1737,20.261 -24.4627,20.261 -9.1675,0.008 -17.9757,-3.565 -24.548,-9.956 z"
     fill="#000000"
     id="path4" />
  <path
     d="m 107.40797,101.4317 c 0,-17.020004 12.054,-26.841604 25.686,-26.841604 5.525,-0.0453 10.863,2.0019 14.94,5.7303 l -5.907,7.9013 c -2.691,-2.3545 -5.235,-3.6693 -8.397,-3.6693 -8.177,0 -13.815,6.7271 -13.815,16.909304 0,10.183 5.571,16.83 13.454,16.83 3.957,0 7.59,-1.938 10.489,-4.372 l 4.941,7.993 c -4.616,4.054 -10.552,6.286 -16.696,6.274 -13.98,0 -24.695,-9.821 -24.695,-26.755 z"
     fill="#000000"
     id="path5" />
  <path
     d="m 155.52597,60.133096 c 0,-4.0729 3.199,-6.8494 7.492,-6.8494 4.293,0 7.492,2.7765 7.492,6.8494 0,4.073 -3.199,6.8495 -7.492,6.8495 -4.293,0 -7.492,-2.856 -7.492,-6.8495 z m 1.364,15.7049 h 12.176 V 126.9397 h -12.151 z"
     fill="#000000"
     id="path6" />
</svg>
